<svg xmlns="http://www.w3.org/2000/svg" xmlns:xlink="http://www.w3.org/1999/xlink" width="22" height="22" viewBox="0 0 22 22"><defs><path id="a" d="M0 0H22V22H0z"/></defs><clipPath id="b"><use xlink:href="#a" overflow="visible"/></clipPath><path clip-path="url(#b)" fill="#fff" d="M14.602 2.501c-3.337-3.335-8.764-3.335-12.099 0-3.336 3.336-3.336 8.764 0 12.099 2.927 2.928 7.466 3.285 10.789 1.074l5.831 5.832a1.686 1.686 0 0 0 2.384-2.385l-5.831-5.832c2.21-3.321 1.852-7.86-1.074-10.788m-2.385 9.716a5.189 5.189 0 0 1-7.33 0 5.189 5.189 0 0 1 0-7.33 5.189 5.189 0 0 1 7.33 0 5.19 5.19 0 0 1 0 7.33"/></svg>