<svg xmlns="http://www.w3.org/2000/svg" xmlns:xlink="http://www.w3.org/1999/xlink" width="128" height="127.999" viewBox="0 0 128 127.999"><defs><path id="a" d="M22 20.754h83v86.129H22z"/></defs><clipPath id="b"><use xlink:href="#a" overflow="visible"/></clipPath><path clip-path="url(#b)" fill="#fff" d="M89.758 66.725a1.391 1.391 0 0 0-.215.562 3.086 3.086 0 0 0-.011.992c.021.16.056.322.095.479.036.128.095.289.056.423-.027.095-.179.166-.246.231a4.62 4.62 0 0 0-.549.578c-.108.139-.176.319-.374.344-.111.015-.354.067-.349-.12.003-.071 0-.142.003-.216.002-.112-.008-.229.006-.338.017-.117.08-.237.122-.351.045-.121.209-.331.093-.456-.07-.07-.238-.058-.219-.199.018-.114.06-.221.073-.333.02-.158.03-.318.022-.477a2.743 2.743 0 0 0-.182-.777c-.341-.897-1.118-1.632-2.04-1.894a2.226 2.226 0 0 0-.44-.081c.706-1.811 1.348-3.453 1.845-4.715.474.681.929 1.314 1.16 2.159.137.506.223 1.029.396 1.523.136.395.341.758.488 1.145.14.354.201.735.349 1.083.084.194.026.277-.083.438m-6.771 5.949c-.125.125-.286.22-.448.306.134-.349.27-.7.406-1.057.135.264.283.509.042.751m13.157 18.111c.223-1.289-.104-2.729-.807-3.82a4.679 4.679 0 0 0-.265-.37c-.647-.82-.449-1.523-.584-2.511-.22-1.648-.358-3.338-.181-4.996.081-.749.237-1.411.153-2.172-.089-.82-.31-1.619-.368-2.442-.044-.641-.391-1.166-.61-1.753-.171-.452-.271-.498-.123-.978.148-.485.448-.922.516-1.437.167-1.223-.897-2.197-.943-3.404-.008-.199.06-.363.09-.556.062-.385-.027-.756-.137-1.124-.161-.532-.421-.98-.688-1.46a6.65 6.65 0 0 0-.519-.834c-.171-.215-.357-.409-.528-.622-.212-.269-.396-.558-.594-.834-.273-.381-.547-.75-.784-1.149-.145-.237-.307-.471-.421-.723-.067-.151-.069-.319-.22-.425-.06-.043-.162-.104-.146-.188.017-.083.128-.168.182-.231.158-.194.268-.437.326-.684.201.046.359.078.394.073.1-.021.175-.209.206-.392.036-.183-.174-.328-.174-.328l-.326-.161c.003-.449-.086-.929-.426-1.108-.154-.08-.255-.003-.411-.052-.169-.055-.27-.248-.46-.294-.159-.034-.295.073-.438.035-.229-.058-.329-.243-.589-.272-.229-.025-.466.038-.689 0-.206-.03-.44-.265-.641-.104-.124.096-.109.357-.159.497-.056.163-.162.303-.171.48-.003.106.031.197.034.297.006.186-.12.33-.151.497 0 0-.058.3.07.452.087.103.201.139.304.217 0 .003.003.003.003.006.242.191.332.671.496.933.129.204.274.392.422.583l-2.224 5.802c-.479.162-.92.458-1.269.831-.288.306-.58.636-.718 1.042-.147.438.034.738.138 1.149.038.156-.006.305-.018.461-.014.174-.125.169-.218.078-.069-.066-.155-.123-.259-.083-.311.112-.227.586-.167.82.05.217 0 .439.024.663.025.191.128.474.304.583 0 0 .003 0 .003.002l-1.437 3.636-.098.126c-.237.302-.446.626-.697.917-.773.9-2.042 1.733-1.471 3.094.073.177.215.404.129.595-.108.239-.26.461-.382.695a1.488 1.488 0 0 0-.156.769c0 .046.047.166.103.306l-.212.506c-.114-.052-.229-.078-.356-.111-.365-.098-.717-.087-.891.166a.727.727 0 0 0-.114.379c-.005.146-.011.258-.111.372-.072.083-.179.116-.229.22-.094.188.048.39.015.589-.022.134-.081.234-.056.374.041.239.108.425.131.671.014.2.084.323.246.424.017.011.033.022.055.033a.029.029 0 0 0 .021.009l-1.582 3.818-1.764 4.257-.304.737-.552.446s-1.738 1.211-1.811 1.625c1.228.105 2.443.242 3.651.405a2.05 2.05 0 0 1 .081-.027l-.326-2.044.443-1.102 1.498-3.721.223-.554 1.531-3.759c.12-.043.237-.108.353-.16a.825.825 0 0 1 .304-.085c.181 0 .371.082.561.088.153.006.313-.022.463-.071.614-.194 1.298-.794 1.567-1.374a.98.98 0 0 0 .073-.22c.058-.229.062-.469.146-.692.1-.271.332-.368.468-.602.098-.162.173-.226.307-.055.229.302.483.604.742.877.179.185.389.332.589.482.302.223.814.466.89.875.02.114.012.226-.005.334-.036.228-.114.453-.084.688.048.371-.03.654-.302.933-.078.081-.15.174-.212.268-.427.635-.499 1.499-.691 2.213-.147.553-.33 1.066-.479 1.612a7.16 7.16 0 0 0-.106.397c-.159.681-.524 1.334-.775 1.996-.087.241-.176.478-.263.72a17.429 17.429 0 0 0-.433-.18 4.493 4.493 0 0 0-.594-.209c-.383-.094-.79-.085-1.175-.025-.27.044-.582.188-.803.347a1.493 1.493 0 0 0-.385.425c-.137.22-.24.463-.321.714-.15.463-.229.963-.307 1.426-.037.234-.075.469-.098.706l-.022.202a77.933 77.933 0 0 1 12.143 3.056 4.477 4.477 0 0 0-.062-2.036 2.091 2.091 0 0 0-.139-.391c.119-.104.242-.201.352-.32.307-.339.558-.734.831-1.105.455-.626.653-1.512 1.537-1.533.734-.018 1.396-.083 2.072-.398a4.08 4.08 0 0 0 .389-.207c.951-.591 1.476-1.518 1.652-2.541"/><path clip-path="url(#b)" fill="#fff" d="M105 106.884C96.927 99.708 81.3 94.84 63.329 94.84 45.6 94.84 30.161 99.583 22 106.599c10.526-6.348 25.126-10.284 41.273-10.284 14.384 0 27.533 3.128 37.679 8.299a56.284 56.284 0 0 1 2.168 1.165c.089.048.176.098.266.148.549.315 1.084.63 1.614.957"/><path clip-path="url(#b)" fill="#fff" d="M65.527 89.099c-.182-.073-2.645-1.012-4.879-1.4-2.233-.385-6.081-.151-8.349.105s-6.209.808-6.209.808 3.484-.642 7.049-.993c3.568-.351 6.539-.188 7.559-.037 1.017.154 3.051.748 3.945 1.054.893.303 1.05.445 1.111.521.066.074-.045.009-.227-.058m-8.305-1.947c-.136.012-1.257.157-1.257.157s-.125.022-.132-.023c-.006-.046-.006-.071-.069-.1 0 0-.099-.118.057-.168.161-.055 1.278-.363 1.278-.363s.133-.018.111.061c-.027.074-.032.229.05.284.084.053.095.142-.038.152m-.347-.654c-.106.018-2.071.57-2.3.603-.226.029-.519.074-.585.114-.063.044-.128-.057-.186-.073-.057-.019-.699-.989-.699-.989s-.049-.111.039-.123c.086-.011.204.029.258-.034.05-.065.273-.118.325-.011.055.103.055.308.183.402.128.092.194.105.169.191-.022.089.017.171.095.234.076.065.162.095.227.017.063-.074.083-.18.024-.233-.058-.052-.058-.098.017-.111.077-.009.139-.092.123-.258-.017-.162-.063-.242.055-.257.114-.009 1.385-.093 1.817-.196 0 0 .151-.049.216.044.066.095.197.493.246.547.045.051.082.114-.024.133m-4.17 1.006l-.534.06s-2.174-5.265-2.526-6.331c-.35-1.062-5.602-14.174-7.518-18.849-1.919-4.68-6.806-16.657-7.532-18.249-.727-1.588-5.194-12.84-6.154-15.084-.959-2.246-2.582-5.445-2.816-6.064-.109-.269.123-.438.231-.274.094.168 3.157 6.858 4.233 9.36 1.077 2.502 10.829 25.872 12.749 30.363 1.919 4.49 6.501 16.324 7.533 19.086a271.726 271.726 0 0 0 2.334 5.982M49.317 66.02s-5.007-8.164-5.007-8.182c0 0 1.082-.736 1.374-.971l3.633 9.153zm-3.751-9.346s-.608.585-1.39.97c0 0-5.134-8.913-5.955-10.292-.816-1.379-1.205-2.537-1.448-2.759-.249-.224-.714-1.169-.843-1.38-.128-.212-.385-.189-.385.118 0 .302.197 1.05.128 1.145 0 0-1.112-2.654-1.486-3.554-.375-.902-1.746-4.059-1.733-4.085 0 0 3.086 4.657 3.661 5.533.575.877 2.797 4.178 3.545 5.356.75 1.183 5.906 8.948 5.906 8.948M35.04 79.166s2.14 6.724 2.339 6.889c0 0 .068.081-.123.154-.194.077-.333.118-.428.118-.091 0-.115.131-.091.271.022.14.116.391.213.431.1.039.25-.005.34.061.088.063.216.324.328.414.111.088 1.24 2.11 1.24 2.11s.081.129-.017.164c0 0-1.346.591-1.774.871 0 0-.263-1.346-.268-1.498-.007-.15.053-.279.005-.34-.046-.057 0-.314-.111-.392l-1.653-9.253zm2.663 14.882c1.216-1.218 1.475-2.665 1.614-3.881 0 0 .045 1.496-.632 2.875-.676 1.38-2.502 2.691-3.555 1.942-.001 0 1.355.281 2.573-.936m2.707-7.024c-.099.017-2.364.308-2.421.327-.06.019-.106-.005-.158-.034a.775.775 0 0 1-.183-.176s-.034-.081.112-.112c.145-.029 2.456-.212 2.519-.229.066-.017.101.044.155.095.051.054.074.111-.024.129m1.957-.234s-1.608.183-1.676.188c-.071.006-.117-.1-.14-.16-.026-.057.05-.068.05-.068.229-.051 1.586-.116 1.725-.071.141.049.041.111.041.111m4.551 1.613l-.076.017-.363-1.128.439 1.111zm-.095-2.334s-.314.535-.392.622c-.077.088-.214 0-.214 0l-1.025-.428c-.057-.037.044-.063.044-.063s1.412-.206 1.54-.213c.13-.003.047.082.047.082m.212.095c.068-.129.118-.191.234-.209.116-.021 3.719-.512 3.719-.512s.095.352.245.397c.152.049.783 1.742.783 1.742l-5.038.78-.386-1.104s.123-.03.14-.158c.018-.131-.123-.239-.194-.223 0 .001.425-.585.497-.713m-7.639 3.379c-.14.043-.229-.057-.229-.057s-.993-1.748-1.05-1.87c-.06-.123.099-.142.099-.142-.011 0 2.33-.322 2.33-.322s.005.172-.073.294c-.077.123-.128.151-.077.186.055.035.112-.016.205-.145.095-.13.117-.357.117-.357s4.206-.525 4.357-.569c.15-.039.262-.035.262-.035s.804.275.866.324c.065.046.034.079.022.219-.012.145.142.213.142.213l.403 1.155c-1.583.255-7.233 1.066-7.374 1.106m27.138-.154c.123-.075.073-.279.028-.368-.048-.088-.14-.018-.198.034-.059.055-.165.065-.245.147-.083.081-.177.006-.258-.082-.083-.089-.03-.134.013-.223.038-.088-.059-.117-.201-.1-.14.02-.185-.163-.257-.269-.067-.106-.168-.14-.123-.18.048-.044.017-.124-.062-.111-.083.011-.072.04-.27-.184-.198-.22-1.189-1.414-1.189-1.414-1.685-2.104-4.863-6.504-6.76-9.169-1.894-2.666-7.355-10.936-7.355-10.936s-3.663-9.238-3.791-9.565c-.128-.329-1.791-2.763-1.791-2.763s-11.32-17.095-11.46-17.346c-.14-.254-.423-.491-.423-.491-.033-.364-2.431-5.617-2.759-6.305-.329-.691-3.3-7.113-3.38-7.288-.082-.177-.188-.286-.294-.305-.103-.017-.332-.27-.48-.376-.145-.114-.134-.083-.197-.155-.065-.071-.158-.234-.207-.292-.045-.06.018-.094.018-.094l.786-.681c.091-.12-.032-.085-.032-.085s-.888.671-1.005.753c-.117.084-.32.063-.454.07-.135.008-.089.083-.089.083s.169.199.257.194c.089-.006.169-.106.252-.172.082-.063.151-.017.151-.017s.188.164.166.229c-.025.063-.005.199-.005.199.046.632.572 3.112.572 3.112s-.217 9.096-.168 11.157c.044 2.057.842 8.231 1.401 12.115.564 3.885 1.052 5.404 2.34 11.043 1.285 5.636 5.708 18.804 5.708 18.804s1.742 9.799 1.765 9.952c.024.152.095.349 0 .397-.093.046-.082.196-.011.196.071 0 .163.19.163.19l.257 1.613c-1.648.819-2.605 1.647-2.865 1.825-.257.174-.174.454-.174.454.094 1.027.311 1.526.943 2.065.63.537 2.736 1.92 6.479 2.2 1.02.076 1.988.131 2.997.155a81.634 81.634 0 0 1 19.331-2.298c.305 0 .605.017.907.019.362-.13.604-.239.739-.299.607-.281.812-1.28 1.034-2.421.224-1.139.067-2.622.059-2.777-.007-.154.014-.163.137-.24"/><defs><path id="c" d="M0 0h128v127.999H0z"/></defs><clipPath id="d"><use xlink:href="#c" overflow="visible"/></clipPath><circle clip-path="url(#d)" fill="none" stroke="#fff" stroke-width="1.2" stroke-miterlimit="10" cx="63.999" cy="64" r="63.311"/></svg>