<svg xmlns="http://www.w3.org/2000/svg" xmlns:xlink="http://www.w3.org/1999/xlink" width="14" height="14.514" viewBox="0 0 14 14.514"><defs><path id="a" d="M0 0H14V14.514H0z"/></defs><clipPath id="b"><use xlink:href="#a" overflow="visible"/></clipPath><path clip-path="url(#b)" fill-rule="evenodd" clip-rule="evenodd" fill="#87BD4C" d="M1.029 1.393h.979v.852a1.15 1.15 0 1 0 1.717 0v-.852h6.638v.852a1.15 1.15 0 1 0 1.717 0v-.852h.89c.567 0 1.03.462 1.03 1.028v11.063c0 .566-.463 1.029-1.028 1.029H1.029A1.03 1.03 0 0 1 0 13.484V2.421c0-.566.463-1.028 1.029-1.028m3.782 4.998c-.094 0-.17.066-.17.147v1.311c0 .08.077.146.17.146h1.523c.094 0 .171-.066.171-.146V6.538c0-.081-.077-.147-.171-.147H4.811zm-2.855 4.706c-.094 0-.171.066-.171.147v1.311c0 .081.077.147.171.147h1.523c.094 0 .17-.066.17-.147v-1.311c0-.081-.077-.147-.17-.147H1.956zm0-2.353c-.094 0-.171.065-.171.146v1.312c0 .08.077.146.171.146h1.523c.094 0 .17-.066.17-.146V8.891c0-.081-.077-.146-.17-.146H1.956zm8.565 2.353c-.094 0-.171.066-.171.147v1.311c0 .081.077.147.171.147h1.523c.094 0 .171-.066.171-.147v-1.311c0-.081-.077-.147-.171-.147h-1.523zm-2.855 0c-.094 0-.17.066-.17.147v1.311c0 .081.076.147.17.147h1.523c.094 0 .171-.066.171-.147v-1.311c0-.081-.077-.147-.171-.147H7.666zm-2.855 0c-.094 0-.17.066-.17.147v1.311c0 .081.077.147.17.147h1.523c.094 0 .171-.066.171-.147v-1.311c0-.081-.077-.147-.171-.147H4.811zm5.71-2.353c-.094 0-.171.065-.171.146v1.312c0 .08.077.146.171.146h1.523c.094 0 .171-.066.171-.146V8.891c0-.081-.077-.146-.171-.146h-1.523zm-2.855 0c-.094 0-.17.065-.17.146v1.312c0 .08.076.146.17.146h1.523c.094 0 .171-.066.171-.146V8.891c0-.081-.077-.146-.171-.146H7.666zm-2.855 0c-.094 0-.17.065-.17.146v1.312c0 .08.077.146.17.146h1.523c.094 0 .171-.066.171-.146V8.891c0-.081-.077-.146-.171-.146H4.811zm5.71-2.353c-.094 0-.171.066-.171.147v1.311c0 .08.077.146.171.146h1.523c.094 0 .171-.066.171-.146V6.538c0-.081-.077-.147-.171-.147h-1.523zm-2.855 0c-.094 0-.17.066-.17.147v1.311c0 .08.076.146.17.146h1.523c.094 0 .171-.066.171-.146V6.538c0-.081-.077-.147-.171-.147H7.666zm5.627-1.106H.706v7.605c0 .505.417.918.925.918h10.737a.924.924 0 0 0 .925-.918V5.285zM2.867 3.835a.721.721 0 0 0 .719-.719V.719C3.586.324 3.263 0 2.867 0s-.719.324-.719.719v2.397c0 .396.324.719.719.719m8.355 0c.396 0 .72-.324.72-.719V.719c0-.396-.324-.719-.72-.719s-.719.324-.719.719v2.397c0 .396.324.719.719.719"/></svg>