<svg xmlns="http://www.w3.org/2000/svg" xmlns:xlink="http://www.w3.org/1999/xlink" width="158.563" height="36.879" viewBox="0 0 158.563 36.879"><defs><path id="a" d="M-40.688 0h323.276v106.878H-40.688z"/></defs><clipPath id="b"><use xlink:href="#a" overflow="visible"/></clipPath><path clip-path="url(#b)" fill="#FFF" d="M6.27 6.647a3.513 3.513 0 0 0-6 2.482c0 1.611 1.088 6.034 2.567 7.487L6.27 6.647zm76.016 4.973c-.068.102-.101.276-.101.524v1.895c0 .249.027.419.083.509.057.089.242.135.559.135h4.908v14.756c0 .269.056.441.168.509.113.067.306.101.576.101h2.471c.271 0 .457-.028.559-.084.102-.058.153-.231.153-.525V14.684h5.042c.271 0 .44-.046.508-.135.067-.09.102-.261.102-.509v-1.861c0-.249-.029-.427-.085-.541-.055-.113-.231-.169-.524-.169H82.827c-.293-.001-.473.049-.541.151m-17.297 0c-.066.102-.1.276-.1.524v1.895c0 .249.027.419.084.509.056.089.244.135.559.135h4.908v14.756c0 .269.056.441.17.509.112.067.304.101.576.101h2.47c.271 0 .457-.028.558-.084.102-.058.151-.231.151-.525V14.684h5.044c.271 0 .44-.046.508-.135.068-.09.102-.261.102-.509v-1.861c0-.249-.028-.427-.084-.541-.057-.113-.231-.169-.525-.169H65.532c-.294-.001-.474.049-.543.151m-15.933 2.859a5.833 5.833 0 0 0-.289 1.829v8.868c0 .632.079 1.24.238 1.828.159.585.438 1.105.835 1.558.399.451.929.812 1.588 1.083.66.271 1.499.406 2.517.406h7.953c.339 0 .541-.068.608-.204.068-.137.103-.35.103-.644v-1.589c0-.339-.03-.564-.085-.678-.057-.113-.266-.169-.626-.169h-7.616c-.564 0-.97-.123-1.217-.371-.25-.25-.373-.598-.373-1.05v-3.552h8.022c.36 0 .575-.068.643-.204.066-.136.101-.351.101-.644V19.49c0-.316-.035-.531-.101-.644-.068-.112-.283-.169-.643-.169h-8.022v-2.506c0-.473.118-.833.355-1.081.237-.249.648-.373 1.235-.373h7.344c.339 0 .543-.055.611-.168.067-.113.101-.327.101-.645v-1.591c0-.314-.028-.54-.084-.676s-.265-.204-.627-.204h-7.681c-.927 0-1.721.135-2.38.407-.66.271-1.194.633-1.604 1.084-.412.451-.712.97-.906 1.555m-16.629-2.943c-.115.089-.171.283-.171.574v13.065c0 .608.08 1.208.238 1.794.161.585.433 1.11.82 1.572.387.464.912.83 1.57 1.101.662.271 1.488.406 2.483.406h7.92c.315 0 .502-.063.557-.186.056-.125.085-.321.085-.594v-1.793c0-.271-.033-.457-.101-.558-.069-.101-.249-.153-.542-.153h-7.379c-1.151 0-1.726-.541-1.726-1.623V12.11c0-.314-.057-.511-.17-.592-.115-.079-.319-.118-.616-.118H33.04c-.295 0-.5.045-.613.136m-8.554.032c-.113.069-.17.25-.17.542v17.295c0 .272.057.446.17.524.115.08.297.119.548.119h2.458c.272 0 .466-.033.58-.101.113-.068.17-.249.17-.543V12.11c0-.292-.051-.473-.154-.542-.103-.067-.301-.1-.596-.1H24.42c-.251 0-.432.033-.547.1M7.062 21.352l1.76-5.789 1.388-4.705h.168l1.421 4.806 1.76 5.688H7.062zM.089 29.337a.612.612 0 0 0 0 .49c.066.148.226.221.474.221h3.113c.27 0 .468-.046.592-.135.125-.091.219-.236.288-.439l1.488-4.604h8.597l1.49 4.638c.09.248.208.398.355.456.146.056.344.084.592.084h3.115c.248 0 .399-.073.457-.221a.674.674 0 0 0-.018-.49L13.29 7.914c-.226-.655-.487-1.089-.779-1.304-.293-.214-.79-.32-1.488-.32H9.565c-.316 0-.586.028-.812.084s-.423.141-.592.253c-.169.114-.31.271-.422.473a4.972 4.972 0 0 0-.339.814L.089 29.337zM113.77 12.313c0-.314-.029-.54-.085-.676s-.266-.204-.626-.204h-7.684c-.925 0-1.719.135-2.38.407-.659.271-1.194.633-1.604 1.084-.41.452-.711.97-.905 1.555a5.833 5.833 0 0 0-.289 1.829v8.868c0 .632.078 1.24.238 1.828.161.585.438 1.105.837 1.558.397.451.927.812 1.587 1.083.66.271 1.498.406 2.515.406h7.955c.339 0 .54-.068.609-.204.068-.137.1-.35.1-.644v-1.589c0-.339-.027-.564-.083-.678-.056-.113-.265-.169-.626-.169h-7.616c-.564 0-.971-.123-1.22-.371-.248-.25-.372-.598-.372-1.05v-3.552h8.022c.36 0 .575-.068.642-.204.068-.136.103-.351.103-.644V19.49c0-.316-.035-.531-.103-.644-.067-.112-.282-.169-.642-.169h-8.022v-2.506c0-.473.119-.833.355-1.081.238-.249.649-.373 1.236-.373h7.345c.339 0 .541-.055.61-.168.066-.113.102-.327.102-.645v-1.591z"/><path fill="#87BD4C" d="M118.337 30.699c-.935 0-1.595-.742-1.595-1.732s.688-1.732 1.65-1.732 1.622.715 1.622 1.732c0 .99-.66 1.732-1.65 1.732h-.027zm10.09 0c-3.574 0-6.379-2.64-6.379-6.846 0-4.455 2.942-7.067 6.599-7.067 3.822 0 6.407 2.777 6.407 6.819 0 4.949-3.438 7.094-6.6 7.094h-.027zm.083-1.815c2.31 0 4.042-2.172 4.042-5.197 0-2.255-1.128-5.087-3.987-5.087-2.832 0-4.069 2.64-4.069 5.169 0 2.915 1.649 5.114 3.987 5.114h.027zm9.62-7.644c0-1.567-.028-2.915-.11-4.152h2.117l.11 2.612h.082c.604-1.787 2.09-2.915 3.712-2.915.248 0 .44.028.66.083v2.255c-.275-.027-.522-.055-.853-.055-1.705 0-2.915 1.292-3.244 3.08a7.478 7.478 0 0 0-.083 1.155v7.094h-2.42l.029-9.157zm20.125 7.204c0 3.08-.632 4.922-1.897 6.104-1.319 1.183-3.189 1.595-4.866 1.595-1.595 0-3.354-.385-4.427-1.1l.604-1.87c.88.577 2.255 1.072 3.904 1.072 2.475 0 4.29-1.292 4.29-4.674v-1.458h-.056c-.715 1.237-2.172 2.227-4.234 2.227-3.3 0-5.664-2.804-5.664-6.517 0-4.509 2.942-7.039 6.021-7.039 2.31 0 3.547 1.183 4.152 2.282h.055l.083-1.979h2.145c-.083.935-.11 2.007-.11 3.629v7.728zm-2.42-6.131c0-.385-.027-.742-.137-1.072-.44-1.43-1.595-2.584-3.383-2.584-2.31 0-3.959 1.952-3.959 5.059 0 2.584 1.347 4.784 3.932 4.784 1.513 0 2.859-.935 3.354-2.502.138-.385.192-.853.192-1.292v-2.393z"/></svg>