<svg width="100" height="91" xmlns="http://www.w3.org/2000/svg"><title>Layer 1</title><g fill="#FFF"><path d="M39.175 16.423c.792 0 1.436-.643 1.436-1.436V9.008a1.435 1.435 0 1 0-2.87 0v5.98c0 .792.642 1.435 1.434 1.435zM53.457 23.717c.367 0 .734-.14 1.015-.42l5.14-5.141a1.434 1.434 0 1 0-2.03-2.029l-5.14 5.141a1.434 1.434 0 0 0 1.015 2.45zM21.593 23.297c.28.28.646.42 1.013.42s.736-.14 1.014-.42c.56-.56.56-1.468 0-2.029l-5.14-5.14a1.434 1.434 0 1 0-2.03 2.028l5.143 5.141zM18.9 36.231c0-.791-.642-1.435-1.436-1.435h-6.457a1.435 1.435 0 1 0 0 2.87h6.457c.794 0 1.435-.641 1.435-1.435zM69.647 30.04a22.56 22.56 0 0 0-11.534 3.164 16.433 16.433 0 0 0-5.76-2.682c-2.67-6.173-9.425-9.814-16.235-8.32-7.73 1.692-12.64 9.358-10.945 17.086.117.533.276 1.043.45 1.548-7.852 1.227-13.885 8.019-13.885 16.212 0 9.061 7.369 16.431 16.43 16.431 2.498 0 4.95-.571 7.187-1.666a16.402 16.402 0 0 0 15.36 10.634c5.673 0 10.9-2.912 13.9-7.67 1.678.385 3.365.582 5.032.582 12.494 0 22.66-10.166 22.66-22.662 0-12.491-10.167-22.656-22.66-22.656zm-32.914-5.035c4.825-1.057 9.609 1.112 12.126 5.053-.145-.004-.29-.017-.435-.017-7.19 0-13.388 4.554-15.59 11.255a16.365 16.365 0 0 0-4.218-.662 11.172 11.172 0 0 1-.638-1.959c-1.357-6.182 2.57-12.313 8.755-13.67zM69.647 72.49a19.83 19.83 0 0 1-5.336-.751 1.436 1.436 0 0 0-1.652.7 13.557 13.557 0 0 1-11.944 7.139 13.535 13.535 0 0 1-13.129-10.23 1.434 1.434 0 0 0-1.39-1.082c-.27 0-.537.076-.772.222a13.502 13.502 0 0 1-7.256 2.12c-7.477 0-13.56-6.083-13.56-13.56s6.082-13.563 13.56-13.563c1.751 0 3.466.336 5.098 1a1.437 1.437 0 0 0 1.94-1.013c1.404-6.22 6.84-10.563 13.217-10.563.599 0 1.193.051 1.782.13a13.63 13.63 0 0 1 6.899 3.015 1.433 1.433 0 0 0 1.705.098 19.701 19.701 0 0 1 10.838-3.243c10.913 0 19.79 8.877 19.79 19.788 0 10.915-8.879 19.793-19.79 19.793z"/></g></svg>